<?xml version="1.0" encoding="utf-8"?>
<!-- Generator: Adobe Illustrator 22.1.0, SVG Export Plug-In . SVG Version: 6.00 Build 0)  -->
<svg version="1.1" id="Layer_1" xmlns="http://www.w3.org/2000/svg" xmlns:xlink="http://www.w3.org/1999/xlink" x="0px" y="0px"
	 viewBox="0 0 250 250" style="enable-background:new 0 0 250 250;" xml:space="preserve">
<style type="text/css">
	.st0{fill:none;}
	.st1{font-family:'MicrosoftSansSerif';}
	.st2{font-size:41.6211px;}
</style>
<g>
	<path d="M182.1,71.7c-1.9-0.6-3.8-1.3-5.6-1.8c0.4-1.3,0.6-2.6,0.9-3.8c4.3-20.8,1.5-37.6-8-43.1c-9.2-5.3-24.1,0.3-39.3,13.4
		c-1.5,1.3-3,2.7-4.4,4c-1-0.9-2-1.8-3-2.7c-15.9-14.1-31.8-20-41.4-14.5c-9.2,5.3-11.9,21.1-8,40.8c0.4,2,0.8,3.9,1.3,5.8
		c-2.2,0.6-4.5,1.3-6.5,2.1C49.4,78.4,37.5,88.5,37.5,99c0,10.9,12.8,21.8,32.2,28.4c1.6,0.5,3.1,1.1,4.7,1.5
		c-0.5,2.1-1,4.2-1.3,6.3c-3.7,19.4-0.8,34.8,8.3,40.1c9.5,5.5,25.3-0.2,40.8-13.7c1.3-1.1,2.4-2.2,3.7-3.4c1.5,1.5,3.1,3,4.7,4.4
		c14.9,12.9,29.7,18.1,38.9,12.8c9.5-5.5,12.5-22,8.5-42.1c-0.3-1.5-0.6-3.1-1.1-4.7c1.1-0.4,2.2-0.6,3.3-1
		c20.2-6.7,33.3-17.5,33.3-28.5C213.4,88.5,201.2,78.2,182.1,71.7z M134.8,42c13.1-11.3,25.2-15.7,30.7-12.5
		c5.9,3.4,8.1,17.1,4.5,35.1c-0.3,1.2-0.5,2.3-0.8,3.5c-7.3-1.7-15.2-3-23.5-3.8c-4.8-6.9-9.8-13.1-14.8-18.6
		C132.1,44.4,133.5,43.1,134.8,42z M89.5,108.1c1.6,3,3.2,6.1,5,9.1c1.7,3,3.6,6.1,5.5,9c-5.7-0.6-11.2-1.5-16.2-2.6
		C85.3,118.6,87.2,113.4,89.5,108.1z M89.4,90.4c-2.1-5.2-4-10.3-5.6-15.2c5-1.2,10.4-2.1,15.9-2.8c-1.7,2.9-3.5,5.8-5.3,8.9
		C92.7,84.3,91,87.3,89.4,90.4z M93.5,99c2.3-4.8,4.8-9.6,7.5-14.2c2.7-4.7,5.5-9.1,8.5-13.6c5.3-0.4,10.6-0.6,16-0.6
		c5.5,0,10.8,0.2,16,0.6c3,4.4,5.8,8.9,8.5,13.5c2.7,4.7,5.2,9.3,7.6,14.1c-2.4,5.1-4.9,9.8-7.6,14.5s-5.5,9.2-8.4,13.6
		c-5.2,0.4-10.6,0.5-16.1,0.5s-10.8-0.2-15.9-0.5c-3-4.5-5.9-8.9-8.6-13.7C98.3,108.6,95.8,103.8,93.5,99z M156.4,117.1
		c1.9-3,3.6-6.2,5.2-9.3c2.3,5.4,4.3,10.6,5.9,15.5c-5.1,1.2-10.6,2.1-16.5,2.8C153,123.1,154.7,120.1,156.4,117.1z M161.5,90.3
		c-1.6-3-3.3-6.1-5-9.1s-3.5-5.9-5.4-8.8c5.6,0.7,11,1.6,16,2.8C165.7,80.1,163.8,85.2,161.5,90.3z M125.6,51.1
		c3.5,3.8,7,8,10.4,12.5c-6.9-0.4-13.9-0.4-20.8,0C118.5,59,122,54.9,125.6,51.1z M85,29.7c5.9-3.4,18.9,1.4,32.6,13.6
		c0.9,0.8,1.8,1.6,2.7,2.4c-5.1,5.5-10.2,11.7-15,18.5c-8.3,0.8-16.2,2-23.5,3.7c-0.4-1.8-0.8-3.6-1.2-5.4
		C77.3,45.6,79.5,32.9,85,29.7z M76.6,121.7c-1.6-0.4-3-0.8-4.5-1.3c-8.6-3-15.7-6.7-20.5-10.9c-4.4-3.8-6.5-7.4-6.5-10.5
		c0-6.4,9.6-14.6,25.5-20.1c2-0.7,4-1.3,6.1-1.9c2.2,7.2,5.1,14.7,8.6,22.2C81.8,106.9,78.8,114.5,76.6,121.7z M117.2,156.1
		c-6.8,5.9-13.7,10.2-19.7,12.3c-5.5,1.9-9.7,2-12.3,0.4c-5.5-3.2-7.9-15.6-4.7-32.1c0.4-2,0.8-3.9,1.3-5.8
		c7.2,1.6,15.2,2.8,23.7,3.4c4.8,6.9,9.9,13.1,15.1,18.7C119.4,154,118.3,155,117.2,156.1z M125.8,147.6c-3.6-3.8-7.2-8.1-10.6-12.7
		c3.4,0.1,6.8,0.2,10.3,0.2c3.6,0,7.2-0.1,10.6-0.3C132.7,139.5,129.2,143.7,125.8,147.6z M171.4,158c-1.1,5.6-3.1,9.4-5.7,10.9
		c-5.5,3.2-17.4-1-30.2-12c-1.4-1.3-3-2.6-4.4-4c4.9-5.5,9.9-11.7,14.8-18.7c8.5-0.7,16.5-2,23.8-3.7c0.4,1.3,0.7,2.8,1,4.2
		C172.4,143.6,172.5,151.7,171.4,158z M177.8,120.5c-1,0.4-2,0.6-3,0.9c-2.2-7.1-5.3-14.6-8.9-22.3c3.5-7.6,6.4-14.9,8.6-22
		c1.8,0.5,3.6,1.1,5.2,1.6c16.3,5.6,26.2,13.9,26.2,20.3C205.9,105.8,195.2,114.7,177.8,120.5z"/>
	<path d="M125.5,83.4c8.7,0,15.7,7.1,15.7,15.7c0,8.7-7.1,15.7-15.7,15.7s-15.7-7.1-15.7-15.7C109.8,90.3,116.8,83.4,125.5,83.4"/>
</g>
<rect x="22" y="191.5" class="st0" width="207" height="67.5"/>
<text transform="matrix(1 0 0 1 6.4997 223.1025)" class="st1 st2">React Native</text>
</svg>
